# xmcd
#
# Track frame offsets:
#	150
#	7680
#	15452
#	23000
#	29510
#	36267
#	43270
#	51100
#	57477
#	64382
#	71592
#	79385
#	86775
#	92882
#	99682
#	107340
#	115037
#	122410
#	129560
#	137707
#	144367
#	151105
#	158397
#	165362
#
# Disc length: 2316 seconds
#
# Revision: 0
# Processed by: cddbd v1.5.1PL2 Copyright (c) Steve Scherf et al.
# Submitted via: audiograbber 1.83.01
#
DISCID=31090a18
DTITLE=The Great Country and Trucker Party - The Great Country and Trucker Party  C
DTITLE=D 2
DYEAR=1900
DGENRE=
TTITLE0=Good Hearted Woman
TTITLE1=Hello, Mary Lou
TTITLE2=Country Roads
TTITLE3=Truck Driving Man
TTITLE4=On The Road Again
TTITLE5=500 Miles Away From Home
TTITLE6=Wandering Star
TTITLE7=Six Days On The Road
TTITLE8=Focky Mountain Breakdown
TTITLE9=She'll Be Coming Round The Mountain
TTITLE10=Hilly Billy Country Lilly
TTITLE11=Jambalaya
TTITLE12=Lass Dir Nie Den Tag Verderben
TTITLE13=Help Me Make It Through The Night
TTITLE14=On Top Of Old Smokey
TTITLE15=Lieber Langsam Mit Gefühl
TTITLE16=Long Hard Ride
TTITLE17=Ruby
TTITLE18=Michael Row The Boat Ashore
TTITLE19=Mein Stiefel Kommt In Den Himmel
TTITLE20=Ring Of Fire
TTITLE21=Oh My Darling Clementine
TTITLE22=Rolling My Sweat Baby's Arms
TTITLE23=orange blossom spezial
EXTD=
EXTT0=
EXTT1=
EXTT2=
EXTT3=
EXTT4=
EXTT5=
EXTT6=
EXTT7=
EXTT8=
EXTT9=
EXTT10=
EXTT11=
EXTT12=
EXTT13=
EXTT14=
EXTT15=
EXTT16=
EXTT17=
EXTT18=
EXTT19=
EXTT20=
EXTT21=
EXTT22=
EXTT23=
PLAYORDER=
